<?xml version="1.0" standalone="no"?>
<!DOCTYPE svg PUBLIC "-//W3C//DTD SVG 20010904//EN"
 "http://www.w3.org/TR/2001/REC-SVG-20010904/DTD/svg10.dtd">
<svg version="1.0" xmlns="http://www.w3.org/2000/svg"
 width="1080.000000pt" height="1080.000000pt" viewBox="0 0 1080.000000 1080.000000"
 preserveAspectRatio="xMidYMid meet">

<g transform="translate(0.000000,1080.000000) scale(0.100000,-0.100000)"
fill="#000000" stroke="none">
<path d="M5095 9599 c-38 -4 -117 -13 -175 -19 -479 -53 -942 -188 -1395 -410
-680 -331 -1236 -809 -1667 -1430 -156 -225 -353 -581 -430 -775 -11 -27 -31
-74 -45 -104 -13 -31 -54 -143 -89 -251 -85 -257 -84 -254 -84 -273 0 -27 -40
-44 -115 -51 -84 -7 -212 -45 -263 -78 -20 -13 -50 -30 -67 -38 -43 -21 -128
-108 -148 -153 -10 -21 -25 -75 -34 -120 -8 -45 -23 -93 -33 -107 -29 -42 -41
-91 -46 -190 -6 -104 0 -168 41 -400 24 -138 27 -172 22 -315 -4 -143 -8 -169
-33 -240 -25 -70 -28 -94 -28 -190 1 -87 5 -121 22 -165 50 -128 153 -200 342
-240 30 -6 160 -14 288 -17 200 -5 234 -8 242 -22 13 -26 51 -132 67 -191 8
-30 23 -64 32 -75 10 -11 33 -51 52 -90 62 -128 281 -442 401 -573 l48 -54 0
-309 0 -309 125 0 124 0 78 -83 c253 -270 497 -476 794 -670 343 -223 646
-366 1054 -497 244 -77 573 -140 900 -170 140 -13 612 -13 730 0 50 5 135 15
190 21 348 38 745 137 1071 268 412 164 825 412 1159 696 50 42 170 156 268
253 l178 177 107 1 c59 1 112 2 119 3 9 1 13 75 15 296 l3 296 54 51 c29 29
60 64 69 78 9 14 58 77 108 140 50 63 114 150 142 193 81 123 204 377 253 520
9 24 21 39 34 42 11 2 97 6 190 9 374 12 509 99 546 354 14 104 7 168 -31 279
-29 83 -30 93 -30 264 0 179 7 264 36 419 11 60 15 129 12 230 -3 134 -5 149
-30 200 -15 30 -32 82 -37 116 -19 125 -28 145 -99 214 -43 43 -91 77 -134 98
-37 18 -71 32 -75 32 -5 0 -25 8 -46 19 -20 10 -61 22 -91 25 -30 4 -59 13
-64 19 -6 7 -20 47 -32 90 -228 820 -699 1574 -1326 2126 -230 202 -531 416
-769 546 -551 301 -1100 466 -1768 530 -163 16 -610 18 -732 4z m760 -230
c169 -19 370 -50 487 -75 854 -179 1648 -645 2234 -1309 369 -418 660 -923
836 -1450 37 -113 59 -208 50 -217 -5 -5 -47 -8 -93 -6 -96 3 -93 0 -129 123
-11 39 -25 79 -29 90 -5 11 -19 47 -31 80 -12 33 -31 83 -42 110 -11 28 -24
59 -29 70 -26 67 -172 356 -221 438 -67 113 -187 300 -197 307 -4 3 -18 21
-31 40 -25 37 -156 204 -200 255 -35 41 -220 236 -245 258 -11 10 -42 40 -70
66 -380 361 -884 661 -1405 838 -41 14 -84 29 -95 33 -113 41 -393 105 -566
130 -643 92 -1197 55 -1794 -121 -78 -23 -130 -42 -255 -90 -650 -249 -1214
-659 -1659 -1204 -86 -106 -277 -386 -345 -505 -45 -80 -194 -379 -219 -440
-11 -25 -25 -58 -32 -75 -16 -35 -31 -78 -94 -265 l-46 -135 -90 0 -90 0 1 35
c1 39 66 245 124 390 188 474 444 893 767 1260 122 139 347 352 503 477 294
235 585 411 929 562 395 173 703 257 1206 327 163 23 682 25 870 3z m-70 -279
c209 -18 423 -55 643 -109 487 -122 1064 -418 1462 -751 170 -142 382 -350
485 -475 28 -33 52 -62 55 -65 23 -20 153 -199 227 -310 132 -199 215 -353
336 -620 52 -116 136 -364 140 -414 l2 -31 -265 2 c-409 3 -593 -23 -725 -103
-166 -99 -209 -196 -221 -497 -4 -92 -11 -170 -15 -173 -4 -2 -37 7 -72 21
-58 23 -74 37 -157 131 -105 119 -137 145 -150 124 -10 -17 -12 -14 65 -115
54 -70 82 -115 71 -115 -20 0 -116 -23 -133 -31 -18 -10 -26 -8 -48 9 -41 32
-55 19 -55 -48 l0 -59 -72 -59 c-100 -82 -183 -171 -203 -217 -21 -51 -12 -87
32 -136 25 -28 40 -59 54 -111 10 -40 19 -74 19 -74 0 -1 -34 -10 -76 -19
-102 -23 -281 -120 -338 -184 -24 -26 -36 -26 -80 0 -19 11 -60 23 -90 26 -86
9 -126 -11 -236 -122 l-95 -95 -81 0 c-110 0 -114 -5 -90 -113 10 -45 21 -94
23 -109 l5 -28 -103 1 -104 0 -60 85 c-176 249 -181 258 -204 419 -45 304 -75
411 -147 535 -37 63 -120 149 -181 188 -69 44 -49 45 35 3 86 -43 141 -63 252
-93 144 -38 231 -48 418 -48 173 0 187 -1 265 -27 70 -24 99 -28 192 -28 109
0 111 1 182 39 50 26 95 61 142 111 90 95 123 151 124 214 3 92 -47 138 -140
127 l-55 -6 6 27 c21 84 27 146 23 216 -6 123 -42 139 -90 41 -25 -50 -31 -55
-52 -50 -29 7 -38 -5 -45 -63 -6 -53 -25 -64 -35 -21 -4 17 -13 43 -20 56 -9
17 -10 36 -4 62 19 83 2 227 -28 239 -18 7 -41 -14 -58 -54 -8 -19 -22 -41
-31 -50 -16 -16 -16 -16 -11 2 16 55 19 81 12 140 -7 66 -25 98 -49 89 -11 -4
-13 14 -9 103 5 100 7 111 36 156 l32 47 5 -92 c5 -87 6 -93 27 -96 13 -2 40
5 60 16 21 11 52 25 69 32 17 6 56 36 87 66 32 29 58 54 60 54 2 0 1 -22 -3
-50 -3 -27 -2 -56 2 -65 13 -23 59 -18 100 10 20 14 39 25 42 25 4 0 6 -22 6
-49 0 -87 31 -88 135 -4 68 55 150 159 189 238 26 53 26 53 70 52 51 -2 89 25
112 80 25 57 14 226 -26 418 -36 175 -78 268 -163 360 -126 138 -311 227 -519
250 -46 5 -66 14 -105 45 -63 50 -109 108 -145 184 -57 117 -120 161 -235 160
-60 0 -81 -5 -133 -32 l-62 -32 -61 23 c-51 18 -84 22 -189 22 -118 0 -129 2
-151 23 -43 41 -118 62 -218 62 -86 0 -95 2 -148 34 -120 72 -181 89 -292 84
-87 -4 -127 -17 -204 -68 -28 -19 -65 -30 -125 -39 -107 -16 -172 -47 -237
-112 -59 -59 -101 -133 -133 -232 -24 -75 -38 -91 -150 -175 -244 -183 -332
-301 -400 -538 -71 -247 -148 -435 -222 -542 -121 -176 -158 -237 -183 -303
-45 -119 -70 -163 -151 -259 -96 -115 -283 -302 -296 -298 -6 2 -21 30 -34 62
-57 141 -185 250 -339 289 -135 35 -197 39 -494 31 -248 -6 -291 -5 -296 7 -5
13 40 167 64 224 5 11 19 47 32 80 47 124 164 376 228 488 11 20 30 53 41 72
71 126 229 358 315 464 114 141 370 407 485 506 135 116 392 309 430 323 8 3
17 8 20 12 20 25 328 193 510 278 167 78 474 186 610 215 14 3 43 10 65 16
126 34 363 73 545 90 123 12 567 13 695 1z m-634 -721 c44 -17 78 -36 76 -42
-2 -6 -19 -20 -38 -30 -68 -37 -99 -69 -124 -123 -34 -74 -34 -152 0 -209 22
-39 23 -43 8 -64 -34 -49 -53 -125 -53 -209 0 -73 4 -93 30 -146 33 -70 63
-103 159 -181 109 -88 159 -101 269 -69 41 12 69 29 101 61 24 24 42 46 39 48
-3 3 -28 -6 -56 -20 -43 -21 -63 -25 -146 -25 -165 0 -223 40 -303 207 -37 77
-39 104 -14 203 25 94 92 160 163 160 52 0 54 -13 8 -44 -60 -40 -91 -94 -97
-168 -6 -79 9 -138 48 -182 16 -19 29 -38 28 -43 -4 -22 5 -32 55 -56 73 -36
174 -38 244 -5 57 27 132 100 132 128 0 11 5 20 11 20 7 0 8 -21 4 -65 -9 -79
6 -87 36 -20 22 49 39 66 39 38 1 -27 35 -67 50 -58 8 5 10 21 6 51 l-6 44 63
0 c38 1 69 6 81 15 20 15 17 18 -29 28 -15 4 -14 5 6 6 26 1 46 13 147 85 51
37 69 63 35 53 -10 -3 -51 -17 -92 -32 -65 -24 -82 -26 -150 -19 -42 3 -103
15 -137 25 -51 16 -71 29 -126 86 -35 38 -82 94 -103 126 -21 31 -52 66 -69
77 -38 23 -151 43 -195 34 -35 -7 -40 -20 -11 -29 11 -3 20 -10 20 -15 0 -10
-73 -19 -83 -10 -15 13 -28 91 -21 126 14 74 131 134 279 141 86 4 92 3 143
-27 61 -36 97 -82 158 -203 26 -51 64 -107 89 -133 43 -42 47 -44 107 -45 182
-3 236 5 262 42 13 19 16 17 70 -35 31 -30 56 -59 56 -65 0 -5 -12 -19 -27
-31 -16 -12 -46 -38 -68 -58 -54 -50 -26 -54 54 -7 99 58 161 83 246 100 159
30 296 11 442 -60 122 -60 188 -120 208 -188 19 -62 45 -200 45 -240 0 -16 4
-26 10 -22 6 3 10 50 10 106 0 54 4 99 9 99 26 0 72 -201 91 -404 12 -117 4
-137 -39 -107 -50 36 -147 74 -229 90 -79 16 -285 13 -372 -5 -41 -8 -140 -38
-220 -65 -356 -124 -409 -140 -533 -160 -167 -26 -315 26 -552 193 -120 86
-249 153 -330 173 -129 32 -235 14 -393 -67 -103 -53 -118 -58 -178 -58 -35 0
-73 5 -84 12 -15 9 -24 9 -44 -1 -21 -12 -28 -11 -54 7 -16 12 -35 28 -42 37
-17 20 -90 21 -90 0 0 -8 9 -19 20 -25 11 -6 27 -22 36 -35 15 -24 15 -26 -7
-45 l-24 -19 23 -1 c12 0 22 5 22 10 0 17 21 11 52 -15 60 -51 107 -68 203
-72 59 -3 104 -11 131 -24 22 -10 48 -19 58 -19 36 0 138 -64 182 -114 63 -71
124 -188 190 -361 95 -248 178 -386 327 -541 133 -138 254 -218 442 -291 130
-50 187 -58 425 -57 239 1 320 12 460 63 83 31 153 40 165 22 5 -9 -3 -19 -79
-99 -42 -45 -147 -124 -155 -117 -6 7 57 66 103 98 30 20 35 47 9 47 -23 -1
-105 -44 -184 -98 -34 -23 -64 -40 -67 -38 -2 3 5 17 15 33 43 62 37 63 -52 9
-41 -25 -61 -31 -106 -31 -33 1 -64 6 -73 14 -13 11 -53 13 -194 9 -184 -6
-297 1 -198 12 27 3 51 10 53 16 5 14 -112 54 -157 54 -17 0 -43 -9 -58 -20
-27 -20 -31 -20 -97 -6 -88 19 -165 44 -285 94 -152 63 -205 99 -314 217 -143
154 -327 271 -622 395 -184 78 -299 137 -346 179 -63 56 -108 147 -108 218 0
81 28 188 72 280 l40 83 -23 37 c-26 45 -29 118 -6 173 9 19 39 67 67 105 72
97 71 94 74 203 5 172 46 267 177 413 87 97 105 124 74 113 -26 -10 -18 47 16
114 53 106 125 149 271 161 83 6 92 9 110 34 17 23 59 48 118 70 40 15 115 5
191 -24z m1184 -177 c19 -12 46 -49 74 -100 24 -45 64 -105 89 -134 l45 -53
-58 -14 c-71 -17 -104 -8 -182 50 -72 54 -77 55 -94 18 -22 -50 -73 -64 -174
-49 -89 13 -152 43 -184 89 -21 29 -28 61 -13 61 4 0 21 -9 37 -21 75 -51 124
-69 185 -69 33 0 60 4 60 9 0 9 -151 94 -235 133 -81 37 -108 53 -107 63 1 6
32 11 69 13 79 4 135 -14 286 -90 54 -27 105 -47 112 -44 8 3 17 17 21 32 7
28 0 38 -55 74 -22 15 -23 17 -7 33 23 23 93 22 131 -1z m-998 -344 c-63 -116
-61 -208 8 -280 35 -37 125 -64 167 -49 42 15 53 14 39 -3 -21 -25 -98 -38
-157 -26 -140 29 -209 161 -153 291 19 44 85 109 111 109 5 0 -2 -19 -15 -42z
m145 -34 c59 -31 84 -78 54 -103 -30 -25 -83 32 -91 97 -3 26 -3 26 37 6z
m-1367 -172 c-36 -88 -67 -222 -61 -257 5 -26 -1 -39 -40 -85 -68 -79 -126
-202 -102 -216 13 -9 5 -60 -20 -115 -30 -70 -32 -79 -20 -98 9 -14 8 -27 -4
-56 l-15 -38 -7 52 c-8 58 2 169 15 177 11 6 12 34 1 34 -11 0 -42 -76 -60
-145 -26 -102 -19 -372 14 -499 5 -20 3 -27 -4 -22 -6 3 -23 43 -38 89 -36
110 -51 129 -71 85 -6 -14 -6 -47 2 -96 l12 -75 -42 -42 c-43 -43 -80 -119
-73 -151 3 -14 16 0 49 51 25 39 53 76 62 83 14 12 17 8 27 -30 32 -118 89
-258 105 -258 6 0 23 -30 39 -66 32 -71 52 -70 36 2 -10 40 -12 120 -3 94 3
-8 13 -33 23 -55 9 -22 21 -50 24 -62 14 -44 29 -25 22 27 -11 92 -16 155 -10
140 19 -50 67 -140 75 -140 12 0 12 39 0 76 -5 16 -12 53 -15 83 -5 53 -5 53
14 36 11 -10 20 -26 20 -35 0 -9 4 -20 9 -25 16 -18 89 -259 92 -305 5 -84 0
-146 -11 -130 -5 8 -7 30 -4 47 7 37 -15 55 -41 33 -21 -17 -38 -77 -30 -107
5 -21 10 -24 35 -21 25 4 30 1 30 -17 0 -37 -31 -128 -63 -187 -31 -58 -47
-72 -47 -43 0 17 -77 105 -92 105 -5 0 -8 -12 -7 -27 2 -16 0 -29 -4 -30 -4
-2 -31 8 -59 21 -72 34 -130 48 -142 36 -7 -7 -6 -10 2 -10 16 0 46 -24 113
-91 42 -41 70 -83 108 -160 58 -118 83 -194 117 -359 12 -63 30 -143 38 -177
25 -99 22 -103 -32 -50 -71 70 -103 61 -38 -10 33 -37 263 -374 273 -401 5
-11 -19 -13 -138 -10 l-144 3 -66 55 c-36 30 -83 68 -103 83 -28 21 -50 57
-96 155 -33 70 -68 141 -77 157 -10 17 -36 67 -59 112 -40 80 -96 144 -109
123 -9 -14 49 -188 109 -324 8 -17 24 -58 37 -90 32 -84 98 -202 131 -237 23
-24 25 -29 11 -29 -10 0 -26 12 -35 28 -73 116 -161 253 -206 316 -28 42 -64
100 -79 128 -24 47 -28 50 -33 29 -7 -31 -19 -17 -54 62 -14 33 -30 56 -36 52
-13 -8 -13 -68 2 -139 12 -64 8 -85 -40 -185 -25 -51 -25 -54 -7 -67 17 -13
16 -15 -11 -51 -16 -20 -45 -66 -64 -102 l-35 -66 -158 -3 -158 -3 5 396 c3
217 8 401 13 408 4 6 6 23 4 35 -1 13 3 37 9 53 11 25 10 32 -6 50 -18 20 -19
42 -20 301 l-1 279 102 102 c117 117 223 235 323 358 81 100 83 104 111 186
33 99 66 164 123 244 80 112 101 147 140 229 87 181 116 258 164 428 19 70 40
141 46 157 31 81 193 275 217 260 5 -3 -1 -31 -14 -63z m1042 -617 c3 -45 -26
-137 -44 -142 -12 -4 -17 12 -43 128 -16 73 -11 81 43 65 40 -11 42 -14 44
-51z m112 -19 c9 -11 10 -20 1 -35 -13 -25 -26 -27 -34 -5 -17 45 6 73 33 40z
m1581 -69 c0 -77 -69 -224 -141 -299 -70 -74 -83 -65 -50 38 23 71 37 138 48
219 9 66 17 72 101 74 41 1 42 0 42 -32z m214 13 c32 -12 32 -28 5 -109 -11
-35 -19 -67 -17 -72 6 -19 46 22 72 76 30 60 45 66 97 39 26 -13 30 -19 24
-42 -12 -51 -86 -163 -154 -234 -70 -72 -91 -80 -84 -31 8 60 24 149 30 168 3
13 -5 8 -23 -15 -54 -67 -134 -140 -152 -140 -18 0 -19 4 -10 48 27 141 38
212 38 254 0 79 3 82 81 74 37 -3 79 -10 93 -16z m-388 -22 c-4 -13 -19 -72
-33 -133 -26 -112 -77 -244 -90 -231 -4 4 -7 83 -8 176 l0 169 60 20 c77 25
79 25 71 -1z m-1271 -11 c13 -10 16 -21 11 -41 -10 -42 -40 -31 -44 17 -3 40
4 45 33 24z m1083 -81 c-9 -78 -93 -226 -129 -226 -6 0 -9 43 -7 113 l3 112
42 10 c23 6 48 16 55 23 27 27 41 14 36 -32z m-935 -14 c15 -16 15 -20 1 -40
-20 -29 -42 -28 -50 3 -13 50 17 73 49 37z m725 -75 c-15 -28 -47 -78 -73
-110 -44 -56 -71 -69 -69 -34 0 10 1 51 2 92 1 51 6 77 15 79 6 2 39 12 72 23
33 11 64 16 70 11 5 -5 -1 -28 -17 -61z m-538 3 c0 -20 -64 -100 -81 -100 -17
0 -19 8 -19 58 0 32 2 61 5 64 7 7 95 -13 95 -22z m320 -1 c0 -18 -42 -88 -56
-93 -16 -6 -27 29 -22 65 2 15 12 26 28 30 38 11 50 10 50 -2z m-150 -23 c0
-31 -64 -126 -86 -126 -11 0 -14 15 -14 63 0 35 3 67 7 70 3 4 26 7 50 7 30 0
43 -4 43 -14z m340 -203 c-8 -63 -33 -113 -55 -113 -15 0 -59 101 -48 111 44
41 98 78 104 72 5 -5 4 -36 -1 -70z m-1070 -1 c0 -51 -10 -82 -25 -82 -7 0
-15 10 -18 23 -2 12 -7 29 -11 38 -8 18 31 72 45 64 5 -4 9 -23 9 -43z m1179
-162 c-19 -73 -50 -140 -65 -140 -7 0 -18 9 -24 21 -10 17 -2 42 42 145 l53
124 3 -52 c2 -29 -2 -73 -9 -98z m-112 8 c-3 -8 -6 -5 -6 6 -1 11 2 17 5 13 3
-3 4 -12 1 -19z m-949 -108 c0 -25 -3 -53 -7 -63 -6 -18 -7 -18 -23 0 -10 10
-24 35 -32 54 -15 35 -14 36 16 70 l32 34 7 -25 c4 -14 7 -45 7 -70z m1138
-37 c-8 -89 -26 -153 -42 -153 -6 0 -24 19 -39 42 -22 33 -25 45 -16 57 6 9
25 42 43 73 47 83 63 78 54 -19z m-1031 -86 c-9 -45 -19 -84 -21 -86 -3 -3
-17 7 -31 22 l-27 26 24 51 c27 57 62 99 68 82 2 -7 -4 -49 -13 -95z m-3039
48 c122 -18 156 -28 193 -54 16 -12 34 -21 39 -21 6 0 29 -12 51 -27 44 -28
90 -105 110 -180 18 -70 36 -501 23 -576 -6 -37 -6 -138 0 -270 15 -366 13
-514 -10 -577 -41 -114 -50 -124 -82 -95 -23 21 -221 90 -316 111 -69 15 -148
17 -619 17 -516 0 -545 -1 -641 -21 -180 -39 -312 -88 -390 -147 -45 -34 -68
-36 -72 -5 -2 14 -10 32 -17 40 -7 8 -16 41 -19 72 -6 46 -3 66 13 104 12 26
21 59 21 74 0 15 8 45 17 66 22 52 21 401 -1 554 -9 57 -16 132 -16 166 0 35
-4 65 -9 68 -13 8 -23 128 -16 179 4 24 18 57 31 72 27 32 30 42 39 132 13
133 38 169 159 228 178 87 308 101 937 103 377 2 496 -1 575 -13z m1511 -7
c-3 -8 -6 -5 -6 6 -1 11 2 17 5 13 3 -3 4 -12 1 -19z m5722 11 c223 -21 369
-65 439 -132 48 -46 59 -72 78 -183 9 -55 25 -113 35 -131 16 -26 20 -51 20
-144 0 -62 -5 -144 -10 -183 -23 -161 -32 -298 -32 -495 l0 -208 31 -61 c39
-78 53 -209 27 -257 -34 -63 -27 -62 -139 -7 -106 53 -230 94 -347 113 -43 7
-252 11 -595 10 -495 -1 -535 -3 -629 -22 -103 -22 -289 -84 -364 -122 -23
-12 -45 -18 -50 -14 -4 5 -8 27 -10 50 -1 23 -7 96 -13 161 -7 81 -7 130 0
150 6 20 9 238 8 596 -2 637 -2 642 69 721 82 91 174 132 337 153 130 17 980
21 1145 5z m-4039 -66 c0 -49 -28 -215 -38 -225 -10 -10 -66 32 -83 63 -8 15
-5 26 14 52 14 17 37 56 52 85 30 57 55 69 55 25z m997 -40 c-7 -78 -33 -163
-50 -163 -7 0 -23 17 -36 37 -27 42 -29 34 42 138 21 30 41 55 44 55 3 0 3
-30 0 -67z m-2660 15 c-3 -7 -5 -2 -5 12 0 14 2 19 5 13 2 -7 2 -19 0 -25z
m2159 -186 c9 -26 18 -98 21 -159 6 -111 5 -113 -16 -113 -27 0 -113 20 -123
29 -4 3 4 46 17 96 13 49 29 121 35 159 6 38 13 73 17 79 7 12 29 -28 49 -91z
m-347 51 c11 -39 15 -203 6 -203 -17 0 -107 53 -112 67 -3 8 1 27 10 42 9 14
29 50 43 79 15 28 30 52 35 52 4 0 13 -17 18 -37z m-1289 -73 c-16 -22 -20
-42 -19 -88 2 -61 -37 -199 -87 -310 -13 -29 -24 -55 -24 -58 0 -14 -129 -257
-161 -305 -39 -57 -42 34 -4 136 59 157 93 327 96 480 1 44 4 65 6 47 3 -24 9
-32 21 -30 11 2 21 25 32 78 18 83 30 77 30 -16 0 -46 3 -54 19 -54 19 0 43
49 72 150 19 68 33 82 37 37 2 -26 -3 -47 -18 -67z m-213 28 c-2 -13 -4 -5 -4
17 -1 22 1 32 4 23 2 -10 2 -28 0 -40z m2593 -1 c0 -89 -45 -207 -86 -226 -31
-14 -61 -14 -69 0 -4 5 20 56 52 112 33 57 66 117 73 134 18 41 30 33 30 -20z
m-446 -74 c10 -28 16 -80 16 -129 l0 -82 -46 -4 c-25 -2 -47 -1 -50 1 -7 7 -3
143 5 195 8 46 34 82 52 71 4 -3 14 -26 23 -52z m231 -119 c-6 -59 -8 -62 -37
-68 -17 -3 -33 -4 -36 -2 -7 7 39 210 52 225 16 20 29 -76 21 -155z m-715 51
c0 -58 -3 -75 -14 -75 -46 0 -56 27 -35 91 29 84 49 77 49 -16z m360 -65 l0
-80 -35 0 c-30 0 -35 3 -35 23 0 13 4 27 8 33 5 5 15 25 22 44 13 34 29 60 36
60 2 0 4 -36 4 -80z m228 37 c6 -7 15 -31 20 -54 8 -34 7 -43 -5 -47 -37 -15
-43 -7 -43 54 0 59 8 72 28 47z m-1234 -234 c-46 -37 -64 -27 -19 11 22 19 42
29 44 23 2 -6 -9 -21 -25 -34z m-100 -33 c41 0 41 0 16 -15 -59 -34 -124 -64
-132 -59 -12 8 -9 59 5 73 7 7 24 10 41 7 16 -3 47 -6 70 -6z m2624 -2 c18
-18 15 -68 -3 -68 -24 0 -29 -29 -10 -50 41 -45 89 -13 103 69 l7 42 43 -31
42 -32 0 -208 c0 -156 -3 -211 -12 -217 -7 -4 -74 -7 -148 -7 -144 1 -300 25
-421 65 -121 40 -145 76 -92 141 59 71 189 183 197 169 10 -15 -3 -36 -34 -60
-31 -23 -39 -58 -18 -79 7 -7 31 -12 54 -12 50 0 74 21 57 50 -18 28 -5 166
18 186 44 40 191 68 217 42z m-2502 -185 c-10 -216 -25 -326 -67 -520 -20 -92
-36 -114 -57 -77 -10 17 3 138 18 169 6 11 11 133 13 270 l2 250 45 22 c25 12
47 22 49 23 2 0 1 -62 -3 -137z m-163 50 c9 -15 -13 -137 -28 -160 -15 -22
-117 -93 -135 -93 -16 0 -20 17 -11 46 5 16 13 52 19 79 6 28 13 62 16 77 5
22 15 30 54 42 54 17 79 19 85 9z m309 -21 c42 -27 85 -82 117 -147 52 -107
69 -170 126 -475 9 -47 18 -95 22 -107 7 -30 -6 -29 -39 2 -15 14 -32 25 -38
25 -20 0 -10 -26 21 -56 55 -51 267 -339 258 -348 -2 -3 -58 -2 -124 2 l-120
5 -62 78 c-86 106 -164 229 -224 350 l-51 101 16 107 c23 156 46 359 46 417 0
69 7 76 52 46z m-358 -294 c-13 -110 -32 -148 -110 -225 -40 -40 -77 -73 -83
-73 -16 0 -13 41 12 165 l22 110 70 37 c94 50 97 50 89 -14z m2381 -79 c96
-22 171 -30 338 -36 l177 -5 0 -49 c0 -27 -1 -49 -2 -49 -2 -1 -21 -3 -43 -6
-22 -4 -42 -8 -44 -10 -3 -3 1 -19 7 -37 14 -40 16 -315 3 -336 -8 -12 -11
-10 -15 10 -12 58 -16 115 -17 233 -1 143 9 131 -109 141 -122 10 -356 59
-377 79 -6 6 -15 29 -19 50 l-7 39 34 -7 c19 -5 52 -12 74 -17z m-53 -180 c29
-6 82 -24 117 -40 68 -31 171 -103 171 -119 0 -6 9 -19 20 -30 31 -31 16 -48
-53 -55 -84 -9 -132 -4 -133 15 -2 37 -5 40 -36 40 -43 -1 -72 -23 -65 -50 5
-19 1 -20 -136 -20 -160 1 -308 13 -351 29 l-29 12 20 22 c11 12 23 30 26 39
7 19 65 64 137 106 99 59 198 75 312 51z m-2392 -118 c0 -77 -1 -81 -35 -117
-19 -20 -38 -35 -41 -32 -7 8 27 200 39 216 5 6 16 12 23 12 11 0 14 -19 14
-79z m-76 22 c-2 -10 -11 -53 -19 -97 -18 -88 -26 -109 -63 -148 -49 -53 -51
-34 -17 132 13 63 24 91 42 108 29 27 63 30 57 5z m416 -132 c0 -3 -7 4 -15
15 -8 10 -14 35 -14 54 0 33 1 32 14 -15 8 -27 14 -52 15 -54z m1408 65 c44
-23 60 -48 64 -101 l3 -50 -173 -3 c-201 -3 -195 -10 -89 101 63 66 65 67 116
67 29 0 64 -6 79 -14z m567 -151 c132 0 276 2 320 5 l80 5 -3 -45 c-2 -25 -11
-83 -20 -130 l-17 -85 -60 0 -60 0 -3 56 -3 56 -99 -5 c-60 -3 -105 -1 -112 5
-7 6 -83 16 -168 23 -174 14 -234 32 -250 75 -21 56 -18 58 73 49 45 -5 190
-9 322 -9z m-2355 -60 c0 -59 -57 -121 -115 -125 -76 -5 -93 5 -57 35 84 69
147 115 158 115 8 0 14 -11 14 -25z m-2744 -20 c3 -11 4 -52 2 -90 l-3 -70
-80 -5 c-44 -3 -86 -9 -93 -14 -11 -7 -13 -71 -12 -330 1 -176 2 -327 1 -333
-2 -20 -19 -15 -26 7 -7 23 -36 26 -66 8 -18 -11 -23 -10 -43 15 -52 65 -226
437 -281 602 -36 109 -64 219 -56 224 5 3 154 6 330 6 315 0 322 0 327 -20z
m7212 19 c12 -4 22 -12 22 -19 0 -25 -99 -313 -145 -421 -98 -229 -265 -524
-298 -524 -9 0 -12 21 -12 78 0 63 -4 84 -22 113 -22 35 -23 45 -23 260 l0
224 19 -40 c10 -22 25 -46 34 -54 15 -12 19 -9 32 22 8 20 15 40 15 44 0 5 9
16 20 26 30 25 24 45 -16 62 -51 21 -74 19 -74 -5 0 -31 -20 -24 -26 10 -7 33
-26 38 -154 43 l-65 2 0 85 0 85 290 5 c160 3 310 6 335 8 25 1 55 -1 68 -4z
m-2602 -12 c15 -10 27 -67 19 -92 -6 -19 -14 -20 -193 -20 -179 0 -349 13
-364 28 -4 4 -10 26 -14 50 l-7 42 274 0 c151 0 279 -4 285 -8z m-3407 -63
c-20 -12 -22 -4 -7 20 11 18 14 19 16 5 2 -9 -2 -20 -9 -25z m-39 -48 c0 -5
-9 -19 -20 -32 -21 -26 -27 -10 -8 21 13 21 28 27 28 11z m5442 -965 c-1 -618
-4 -771 -14 -778 -7 -5 -182 -8 -388 -7 l-375 3 0 -60 0 -59 83 -3 c79 -3 82
-4 71 -23 -21 -40 26 -64 67 -35 16 13 17 18 6 35 -12 20 -10 21 38 21 45 0
50 -2 41 -17 -11 -21 -147 -153 -242 -235 -494 -430 -1169 -752 -1839 -877
-423 -79 -840 -96 -1245 -50 -779 88 -1479 380 -2080 868 -173 141 -331 294
-320 311 6 10 37 12 144 7 75 -4 142 -3 149 2 9 5 12 25 10 62 l-3 54 -382 0
c-210 0 -383 2 -386 5 -3 3 -7 353 -9 778 l-3 772 3339 -2 3339 -3 -1 -769z
m147 121 c1 -40 -13 -77 -29 -77 -13 0 -12 38 2 100 13 58 26 47 27 -23z
m-6945 -4 c4 -9 3 -20 -2 -25 -11 -11 -36 17 -27 32 9 15 22 12 29 -7z"/>
<path d="M4891 7941 c-40 -42 -60 -77 -117 -206 l-14 -30 0 28 c0 42 -22 28
-38 -24 -13 -44 -12 -177 2 -210 5 -12 1 -18 -14 -22 -33 -9 -46 0 -57 41
l-10 37 -2 -51 c-1 -50 -2 -52 -48 -81 -46 -29 -105 -103 -71 -91 152 59 288
82 430 75 85 -4 109 -3 119 9 9 11 4 21 -28 52 -39 38 -88 147 -95 212 -5 42
-33 31 -36 -15 -5 -67 -13 -74 -28 -25 -23 71 -3 170 55 268 42 72 44 82 19
82 -13 0 -40 -19 -67 -49z"/>
<path d="M4476 7833 c-46 -48 -81 -119 -103 -207 -15 -61 -15 -74 -2 -123 8
-30 19 -55 24 -56 6 -1 11 21 12 48 6 108 25 175 93 318 12 26 20 50 17 53 -2
3 -21 -12 -41 -33z"/>
<path d="M6419 7568 c-25 -25 -29 -38 -27 -71 4 -51 36 -77 110 -88 61 -10 75
-24 84 -85 10 -67 30 -75 38 -16 12 94 -22 208 -76 258 -50 45 -89 46 -129 2z"/>
<path d="M4500 7437 c0 -19 10 -27 25 -20 17 6 8 33 -11 33 -8 0 -14 -6 -14
-13z"/>
<path d="M5200 7287 c0 -10 5 -17 11 -17 6 0 26 -12 45 -27 27 -20 38 -23 47
-14 9 10 8 15 -7 27 -11 8 -29 14 -40 14 -11 0 -28 7 -38 17 -17 15 -18 15
-18 0z"/>
<path d="M5881 7168 c-55 -119 -58 -131 -43 -136 24 -8 123 221 104 240 -5 5
-32 -42 -61 -104z"/>
<path d="M4494 6674 c-18 -70 22 -142 110 -198 94 -60 122 -91 147 -162 35
-98 122 -187 167 -169 12 4 6 15 -30 53 -29 29 -62 80 -87 134 -36 75 -52 96
-114 150 -122 107 -143 132 -151 177 -7 47 -32 56 -42 15z"/>
<path d="M5244 5786 c-12 -31 46 -86 91 -86 23 0 18 11 -27 57 -45 46 -56 51
-64 29z"/>
<path d="M3439 6084 c-9 -11 -58 -88 -108 -171 -86 -142 -173 -264 -287 -406
-26 -31 -44 -60 -41 -63 11 -12 134 95 192 167 139 172 269 399 263 460 -3 30
-4 31 -19 13z"/>
<path d="M3543 5729 c-129 -64 -255 -212 -381 -449 -60 -112 -88 -192 -97
-276 -7 -55 -5 -63 13 -76 15 -10 23 -30 28 -69 9 -73 20 -92 32 -59 5 14 13
50 16 80 9 67 51 251 78 340 64 210 180 329 349 360 60 11 150 7 173 -8 14 -9
166 -11 166 -2 0 14 -37 38 -100 65 -85 37 -95 47 -45 45 58 -3 60 -2 40 20
-13 15 -31 20 -69 20 -47 1 -49 2 -28 13 33 19 17 27 -52 27 -47 -1 -75 -8
-123 -31z"/>
<path d="M3996 5545 c-3 -9 1 -18 10 -22 19 -7 28 2 21 22 -8 19 -23 19 -31 0z"/>
<path d="M3437 5430 c-67 -53 -94 -175 -61 -273 29 -85 44 -57 44 81 0 89 3
101 30 147 42 70 38 85 -13 45z"/>
<path d="M3464 5266 c-8 -32 2 -59 19 -53 16 5 16 69 0 74 -7 3 -15 -7 -19
-21z"/>
<path d="M3500 5076 c-14 -16 -20 -31 -16 -42 6 -17 5 -18 59 54 18 23 -19 13
-43 -12z"/>
<path d="M1245 6050 c-294 -26 -420 -82 -432 -194 -6 -49 -2 -53 37 -33 14 8
37 17 50 21 83 26 997 47 1150 27 47 -7 121 -16 165 -22 212 -27 226 -30 363
-74 46 -15 86 -24 89 -21 12 12 -18 123 -45 166 -35 57 -128 107 -223 121 -86
13 -1028 20 -1154 9z"/>
<path d="M850 5454 c-36 -13 -71 -32 -78 -41 -13 -17 -11 -78 3 -92 4 -3 24 4
45 17 21 12 47 22 57 22 10 1 29 7 43 15 24 14 23 14 -27 15 -29 0 -53 4 -53
9 0 12 54 51 69 51 6 0 11 4 11 9 0 5 8 12 18 14 14 4 14 5 -3 5 -11 0 -49
-10 -85 -24z"/>
<path d="M958 5393 c7 -3 16 -2 19 1 4 3 -2 6 -13 5 -11 0 -14 -3 -6 -6z"/>
<path d="M1250 5210 c-69 -5 -137 -14 -150 -20 -19 -8 -3 -9 65 -4 50 4 176
10 280 14 105 3 158 7 119 8 -39 1 -98 4 -130 6 -32 2 -115 0 -184 -4z"/>
<path d="M2605 5019 c1 -178 1 -183 23 -192 12 -6 25 -8 28 -5 3 4 1 32 -5 64
-6 32 -11 106 -11 165 0 87 -3 111 -18 128 -16 21 -17 15 -17 -160z"/>
<path d="M762 5036 c-15 -57 -26 -242 -14 -250 5 -3 40 4 78 15 142 42 178 50
349 73 93 13 358 36 418 36 9 0 17 4 17 9 0 21 -109 33 -340 38 -223 5 -312 0
-410 -22 -14 -3 -7 4 17 15 23 11 75 25 117 32 41 6 73 15 70 20 -3 4 -51 8
-107 8 l-102 0 40 25 c45 27 31 32 -42 13 -42 -10 -48 -9 -63 9 -16 20 -17 20
-28 -21z"/>
<path d="M2702 5067 c-18 -21 -12 -279 6 -285 11 -3 12 17 7 104 -4 64 -3 119
3 134 5 14 6 33 3 43 -6 17 -9 17 -19 4z"/>
<path d="M2543 4900 c0 -25 2 -35 4 -22 2 12 2 32 0 45 -2 12 -4 2 -4 -23z"/>
<path d="M1038 4800 c-57 -10 -210 -53 -261 -75 -48 -20 -71 -59 -92 -153 -14
-62 -15 -76 -4 -83 9 -5 17 -2 22 8 13 21 178 97 258 117 39 9 98 15 145 14
43 -1 110 4 147 12 52 11 75 11 98 3 22 -8 39 -9 61 -1 37 13 765 4 937 -12
114 -10 212 -36 307 -83 24 -11 46 -19 48 -16 2 2 6 39 7 82 3 59 0 80 -11 87
-9 5 -19 5 -27 -1 -8 -8 -40 -1 -105 20 -51 17 -124 35 -163 41 -95 13 -614
25 -900 20 -109 -2 -372 13 -405 23 -8 3 -36 1 -62 -3z"/>
<path d="M8575 6049 c-149 -7 -266 -29 -327 -60 -54 -28 -91 -88 -99 -163 -3
-34 -4 -64 -2 -68 2 -4 16 -2 31 4 38 15 125 38 215 57 27 6 63 17 80 24 89
39 130 42 582 39 491 -2 541 -6 805 -58 138 -27 135 -28 132 31 -1 31 -10 61
-25 82 -38 55 -160 96 -341 113 -122 11 -835 11 -1051 -1z"/>
<path d="M9890 5508 c71 -43 75 -58 13 -48 -26 5 -75 11 -108 15 -51 5 -58 4
-45 -8 8 -8 44 -24 80 -37 36 -13 94 -43 129 -67 56 -38 66 -42 74 -28 12 22
-2 95 -24 127 -22 31 -112 78 -148 78 -21 0 -16 -5 29 -32z"/>
<path d="M9636 5391 c-4 -6 -1 -13 6 -15 18 -6 240 -36 264 -36 18 0 18 1 -1
14 -42 28 -256 58 -269 37z"/>
<path d="M9405 5200 c88 -5 196 -11 240 -15 67 -5 77 -4 60 7 -14 9 -83 13
-240 14 l-220 1 160 -7z"/>
<path d="M8186 5148 c-4 -27 -12 -149 -20 -303 -1 -25 2 -29 19 -27 11 2 23 7
27 10 9 10 -3 352 -13 352 -4 0 -10 -15 -13 -32z"/>
<path d="M8105 5055 c-17 -167 -8 -302 16 -264 10 16 10 220 0 299 l-7 55 -9
-90z"/>
<path d="M9756 5010 c72 -15 190 -54 171 -58 -9 -2 -54 1 -100 6 -45 5 -109 6
-142 2 -33 -5 -109 -9 -169 -9 -112 -1 -236 -18 -236 -33 0 -4 28 -8 63 -8 59
0 281 -21 377 -36 61 -9 127 -26 241 -63 53 -17 99 -31 103 -31 5 0 5 24 2 53
-3 28 -9 81 -12 117 l-6 65 -166 2 c-109 0 -153 -2 -126 -7z"/>
<path d="M8275 4921 c-3 -10 -1 -29 4 -42 9 -21 10 -19 10 19 1 45 -4 54 -14
23z"/>
<path d="M8575 4773 c-179 -16 -241 -27 -324 -57 -120 -43 -127 -49 -135 -102
-14 -107 0 -142 40 -95 12 15 42 35 66 45 24 10 70 31 103 48 54 27 65 30 105
21 29 -5 102 -4 205 3 233 18 799 18 817 1 31 -31 60 -40 97 -29 62 18 155 42
171 44 19 2 82 -12 95 -22 6 -4 34 -13 64 -20 66 -15 161 -52 208 -80 20 -12
38 -18 41 -16 7 7 -36 145 -54 173 -25 40 -153 89 -186 72 -15 -8 -30 -6 -61
7 -38 16 -90 18 -582 19 -345 0 -587 -4 -670 -12z"/>
<path d="M7142 4603 c2 -11 14 -19 31 -21 22 -3 27 1 27 17 0 17 -6 21 -31 21
-24 0 -30 -4 -27 -17z"/>
<path d="M4005 3814 c-360 -55 -623 -200 -720 -399 -37 -74 -33 -159 10 -223
40 -61 87 -82 179 -82 109 0 175 27 251 104 89 89 125 179 125 313 0 115 -38
167 -60 81 -38 -156 -84 -242 -178 -329 -104 -98 -201 -131 -272 -94 -28 14
-30 20 -30 71 0 133 135 295 325 388 120 60 124 61 200 82 103 28 155 35 312
42 142 7 191 18 170 38 -8 8 -269 14 -312 8z"/>
<path d="M7004 3810 c-33 -13 -64 -59 -64 -94 0 -17 7 -51 16 -75 8 -25 12
-56 9 -72 -9 -39 -97 -117 -178 -158 -65 -33 -84 -59 -56 -77 14 -8 126 39
206 87 208 125 296 316 173 379 -42 21 -72 24 -106 10z"/>
<path d="M4490 3798 c-30 -11 -105 -14 -140 -5 -14 4 -19 4 -12 1 23 -11 12
-39 -20 -53 -114 -50 -270 -194 -367 -339 -34 -51 -96 -159 -138 -240 -42 -81
-84 -159 -94 -174 -11 -14 -19 -31 -19 -37 0 -6 -4 -11 -10 -11 -5 0 -10 -6
-10 -12 -1 -39 -139 -175 -214 -212 -51 -24 -68 -28 -130 -24 -81 4 -149 33
-154 65 -5 34 29 62 88 73 58 11 85 32 97 78 9 37 -15 71 -67 99 -75 40 -145
20 -197 -57 -58 -85 6 -228 127 -283 37 -17 67 -20 165 -21 164 -1 239 21 382
116 78 52 142 124 202 227 40 68 101 195 101 210 0 5 7 15 17 22 13 11 17 11
20 2 7 -19 72 -16 80 3 5 13 7 13 14 2 21 -33 8 -87 -49 -199 -88 -173 -97
-217 -61 -293 33 -71 60 -90 127 -91 99 0 118 15 390 301 67 71 143 145 167
164 47 36 56 57 30 67 -31 11 -133 -72 -316 -258 -126 -127 -194 -189 -208
-189 -26 0 -28 24 -3 42 54 39 90 288 53 364 -8 16 -25 38 -38 50 l-24 20 23
11 c13 6 43 17 68 24 130 38 247 124 288 211 45 97 22 167 -80 243 l-68 50 30
13 c31 12 38 26 20 37 -19 11 -45 13 -70 3z m10 -38 c0 -5 -4 -10 -9 -10 -6 0
-13 5 -16 10 -3 6 1 10 9 10 9 0 16 -4 16 -10z m-23 -56 c27 -43 16 -212 -17
-244 -3 -3 -12 -18 -20 -35 -8 -16 -42 -58 -75 -92 -72 -73 -124 -95 -181 -74
-20 7 -50 10 -69 7 -47 -9 -56 19 -12 37 23 10 36 25 46 53 52 152 152 295
246 355 41 26 61 24 82 -7z"/>
<path d="M7364 3253 c-15 -21 -77 -88 -137 -149 -108 -111 -127 -144 -85 -152
22 -4 136 114 144 148 10 45 14 51 24 45 15 -9 12 -150 -4 -229 -20 -92 -61
-173 -100 -197 -46 -28 -106 -24 -106 8 0 11 7 13 28 8 20 -4 36 0 53 14 34
27 18 70 -33 89 -48 19 -84 9 -103 -28 -14 -28 -14 -33 9 -78 28 -56 45 -72
95 -89 51 -18 88 -16 162 8 91 30 163 85 366 282 98 95 191 182 207 193 17 12
26 26 22 32 -13 22 -50 12 -95 -23 -37 -29 -204 -181 -275 -250 -45 -43 -88
-75 -102 -75 -20 0 13 68 37 75 46 15 30 118 -32 211 -41 60 -45 87 -19 124
26 36 23 64 -7 68 -15 2 -29 -8 -49 -35z"/>
<path d="M5120 3233 c-120 -19 -313 -169 -360 -278 -42 -99 -11 -215 77 -282
34 -26 43 -28 122 -27 70 1 96 6 142 27 78 37 201 132 338 262 64 60 143 133
175 161 56 49 66 74 30 74 -16 0 -83 -43 -119 -77 -11 -10 -56 -49 -100 -88
-44 -38 -89 -78 -100 -89 -59 -54 -172 -142 -219 -170 -90 -54 -216 -72 -216
-31 0 8 4 15 8 15 11 0 32 45 32 69 0 28 29 48 96 64 89 23 170 63 221 110 57
52 73 84 73 143 0 40 -5 51 -34 79 -42 39 -91 50 -166 38z m100 -84 c0 -58
-31 -112 -97 -168 -44 -38 -133 -81 -168 -81 -39 0 -39 18 1 37 22 10 46 33
57 53 28 52 92 132 123 155 15 11 37 28 48 37 32 26 36 22 36 -33z"/>
<path d="M6113 3233 c-28 -6 -75 -62 -108 -129 -42 -85 -77 -75 -40 12 18 44
7 77 -34 99 -70 36 -111 12 -259 -146 -33 -36 -36 -69 -6 -69 20 0 114 89 125
118 24 64 41 -45 18 -117 -7 -20 -16 -46 -22 -58 -7 -16 -6 -31 6 -56 9 -18
19 -53 23 -78 8 -49 56 -134 84 -149 63 -34 132 9 271 165 120 137 159 177
254 262 52 47 66 66 58 74 -19 19 -58 2 -120 -50 -58 -48 -93 -85 -271 -278
-51 -56 -102 -105 -113 -108 -28 -9 -51 12 -28 25 16 10 20 20 60 185 12 50
36 119 53 154 21 44 27 65 19 68 -7 2 -9 11 -6 19 8 21 23 17 23 -6 0 -29 26
-76 45 -84 61 -23 118 14 113 73 -5 53 -74 89 -145 74z"/>
<path d="M5752 2862 c-17 -39 -81 -112 -98 -112 -7 0 -16 11 -20 24 -9 39 -72
48 -104 16 -26 -26 -25 -60 1 -104 46 -79 142 -53 219 59 29 43 35 75 22 123
-7 22 -7 22 -20 -6z"/>
<path d="M4553 2512 c-72 -26 -128 -65 -164 -115 -27 -36 -30 -48 -26 -90 2
-30 12 -56 26 -70 11 -13 21 -27 21 -33 0 -5 12 -15 27 -21 69 -32 141 3 188
92 46 87 57 125 44 141 -19 23 -26 16 -33 -30 -9 -55 -56 -130 -98 -156 -34
-21 -112 -27 -123 -11 -3 5 -1 20 4 33 5 13 15 43 22 67 33 109 156 189 274
177 55 -6 58 -5 43 10 -25 26 -141 29 -205 6z"/>
<path d="M4843 2488 c-13 -6 -23 -17 -23 -25 0 -7 -5 -13 -11 -13 -27 0 -91
-83 -150 -196 -54 -104 -94 -163 -132 -194 -26 -21 -42 -25 -94 -25 -68 0 -76
-5 -39 -24 15 -9 45 -11 92 -7 89 8 108 8 171 0 73 -8 114 8 167 67 86 95 112
238 61 325 -25 43 -25 44 -6 60 20 17 18 45 -3 43 -6 0 -21 -5 -33 -11z m16
-89 c27 -78 5 -195 -51 -278 -45 -65 -136 -99 -189 -71 -29 16 -23 33 9 25 62
-13 113 58 168 233 22 67 42 122 46 122 3 0 11 -14 17 -31z"/>
<path d="M7804 2376 c-49 -25 -179 -96 -289 -158 -110 -62 -221 -124 -248
-137 -26 -13 -47 -28 -47 -33 0 -30 228 39 360 110 124 67 330 225 330 253 0
15 -15 10 -106 -35z"/>
<path d="M5147 2393 c-4 -3 -7 -21 -7 -39 0 -40 28 -61 60 -44 27 14 27 65 1
80 -23 12 -45 13 -54 3z"/>
<path d="M3042 2358 c23 -36 125 -114 210 -162 93 -53 285 -136 383 -166 126
-38 275 -61 275 -42 0 4 -62 31 -138 61 -125 50 -257 109 -527 236 -232 109
-225 107 -203 73z"/>
<path d="M5081 2253 c-26 -22 -81 -152 -81 -190 1 -67 60 -83 126 -34 96 71
191 191 151 191 -5 0 -49 -38 -97 -84 -83 -79 -124 -104 -135 -86 -9 15 7 41
35 55 32 17 100 114 100 144 0 18 -6 21 -39 21 -22 0 -48 -7 -60 -17z"/>
<path d="M5385 2256 c-12 -8 -16 -20 -12 -35 4 -15 -10 -44 -45 -99 -28 -42
-56 -80 -64 -85 -7 -4 -11 -14 -8 -22 7 -16 99 -22 119 -7 35 25 134 186 122
198 -2 2 -17 -8 -32 -22 -33 -30 -43 -20 -26 28 17 49 -13 74 -54 44z"/>
<path d="M5591 2248 c-5 -13 -25 -43 -45 -68 -30 -38 -36 -53 -36 -93 0 -63
13 -87 49 -87 61 0 239 176 208 206 -3 3 -41 -28 -85 -69 -89 -84 -119 -104
-134 -89 -13 13 9 47 42 63 85 43 96 111 22 153 -7 5 -15 -1 -21 -16z"/>
<path d="M5935 2262 c-26 -6 -64 -30 -102 -65 -38 -36 -51 -93 -32 -140 18
-45 37 -56 90 -57 38 0 58 7 102 38 70 47 159 131 154 145 -7 23 -26 16 -78
-29 -30 -25 -72 -59 -95 -74 -48 -34 -112 -49 -124 -29 -9 14 13 28 73 48 43
15 127 87 127 109 0 24 -12 38 -36 46 -18 6 -21 3 -17 -17 9 -45 -80 -119
-123 -103 -21 8 -11 19 35 44 60 32 80 96 26 84z"/>
<path d="M6240 2249 c0 -6 -18 -27 -41 -48 -36 -32 -39 -38 -26 -50 14 -11 21
-5 52 38 20 28 42 51 48 51 7 0 5 5 -3 10 -20 13 -30 12 -30 -1z"/>
<path d="M6310 2229 c0 -6 -15 -26 -33 -44 -35 -35 -59 -95 -50 -123 23 -75
64 -83 131 -27 82 71 193 186 187 195 -13 21 -36 7 -126 -78 -106 -100 -134
-119 -142 -97 -6 15 27 54 80 95 41 31 42 55 3 75 -34 18 -50 19 -50 4z"/>
<path d="M4367 2093 c-4 -3 -7 -13 -7 -21 0 -11 8 -13 38 -8 79 14 92 18 86
27 -6 10 -107 12 -117 2z"/>
<path d="M6767 1823 c-3 -5 -10 -35 -17 -68 -8 -33 -19 -67 -27 -76 -11 -13
-10 -21 4 -50 20 -42 32 -50 54 -38 19 10 56 96 45 106 -3 3 -6 -1 -6 -10 0
-9 -4 -17 -10 -17 -5 0 -10 -6 -10 -14 0 -8 -5 -18 -12 -22 -16 -10 -3 91 15
120 10 15 11 29 5 49 -9 25 -31 36 -41 20z"/>
<path d="M4207 1715 c-44 -38 -46 -45 -12 -45 29 0 33 -21 9 -45 -21 -20 -50
-15 -46 8 3 20 -25 34 -39 20 -23 -23 34 -73 83 -73 50 0 78 68 38 90 -24 13
-28 45 -4 36 42 -16 61 -16 73 -2 11 13 10 17 -5 22 -11 3 -28 9 -39 14 -15 6
-29 0 -58 -25z"/>
<path d="M4647 1685 c-9 -9 -17 -23 -17 -31 0 -8 -7 -17 -15 -20 -29 -11 -4
-23 25 -12 39 13 54 39 36 63 -12 16 -13 16 -29 0z"/>
<path d="M4390 1669 c-74 -30 -104 -103 -55 -135 32 -21 81 -6 130 41 37 34
44 65 22 84 -21 17 -69 22 -97 10z m70 -48 c-11 -22 -86 -81 -102 -81 -21 0
-3 32 43 75 34 32 54 44 61 37 7 -7 6 -17 -2 -31z"/>
<path d="M6594 1645 c-7 -29 -8 -29 -37 -10 -22 14 -25 12 -68 -40 -24 -30
-47 -54 -50 -55 -4 0 -6 15 -5 33 1 27 -2 32 -19 29 -11 -1 -32 -4 -46 -5 -14
-2 -44 -17 -67 -35 l-41 -33 22 -34 c29 -46 64 -45 59 1 -2 19 4 39 17 55 l20
24 -8 -30 c-5 -16 -12 -38 -16 -47 -6 -15 -1 -18 28 -18 40 0 53 10 82 63 23
44 41 43 37 -2 -3 -29 -1 -32 19 -29 14 2 30 15 39 33 8 17 16 32 18 34 1 3
11 -5 22 -17 27 -29 35 -28 59 7 22 30 27 51 13 51 -5 0 -14 11 -20 25 -7 15
-20 25 -32 25 -13 0 -22 -9 -26 -25z"/>
<path d="M5010 1600 c0 -5 -6 -10 -13 -10 -20 0 -47 -33 -47 -58 0 -24 27 -42
64 -42 14 0 26 -3 26 -7 0 -13 -47 -63 -59 -63 -16 0 -14 -17 4 -24 26 -10 68
13 108 57 38 41 38 41 22 9 -23 -48 -17 -76 19 -80 21 -3 37 5 62 29 24 23 34
28 34 17 0 -9 8 -26 18 -38 15 -19 25 -22 53 -16 38 7 102 56 82 63 -7 3 -13
10 -13 17 0 7 -8 20 -18 29 -17 15 -22 15 -72 -4 -29 -11 -63 -27 -74 -35 -30
-20 -36 -18 -36 16 0 25 6 32 35 44 27 12 35 21 35 41 0 71 -63 90 -115 35
-16 -16 -32 -30 -36 -30 -3 0 -9 14 -12 30 -6 25 -11 30 -37 30 -16 0 -30 -4
-30 -10z m50 -10 c0 -21 -34 -62 -58 -71 -42 -16 -47 5 -12 45 30 34 70 49 70
26z m140 -24 c0 -15 -37 -56 -50 -56 -16 0 -12 20 11 51 20 28 39 31 39 5z
m130 -156 c0 -5 -2 -10 -4 -10 -2 0 -12 -3 -20 -6 -12 -5 -15 -2 -10 10 7 17
34 22 34 6z"/>
<path d="M5629 1541 c-19 -33 -44 -65 -56 -72 -17 -9 -20 -15 -12 -25 6 -8 8
-21 5 -30 -8 -20 10 -44 32 -44 9 0 33 16 53 36 l36 35 6 -30 7 -31 67 3 c62
4 69 6 95 38 15 18 28 38 28 44 0 5 -6 3 -13 -5 -22 -27 -38 -23 -27 6 15 38
5 45 -53 38 -52 -7 -89 -26 -139 -72 -24 -22 -28 -23 -28 -8 0 22 27 75 52
103 22 24 21 66 -3 71 -10 2 -27 -18 -50 -57z m161 -73 c0 -16 -49 -77 -50
-63 0 12 37 75 45 75 3 0 5 -6 5 -12z"/>
<path d="M4683 1562 c-6 -4 -13 -21 -15 -37 -2 -23 -8 -30 -25 -30 -29 0 -38
-12 -23 -30 21 -25 73 -18 116 16 35 28 36 30 12 24 -25 -6 -27 -4 -33 29 -7
37 -12 41 -32 28z"/>
<path d="M6138 1529 l-27 -29 25 0 c19 0 24 -5 24 -25 0 -25 26 -46 47 -38 7
2 22 20 34 39 21 34 21 36 3 50 -21 16 -61 35 -72 33 -4 -1 -19 -14 -34 -30z"/>
<path d="M6017 1523 c-13 -13 -20 -14 -28 -6 -9 9 -21 7 -50 -10 -36 -20 -52
-47 -29 -47 6 0 10 -11 10 -25 0 -30 25 -43 51 -27 10 7 31 9 47 6 25 -5 33
-1 56 28 29 38 34 57 11 38 -8 -7 -15 -9 -16 -4 -1 5 -2 20 -2 34 -2 30 -26
37 -50 13z"/>
<path d="M5448 1477 c-7 -7 -22 -17 -33 -22 -19 -8 -19 -9 3 -12 14 -3 22 -11
22 -25 0 -17 -3 -18 -15 -8 -12 10 -16 9 -22 -5 -7 -19 19 -45 44 -45 15 0 83
58 83 71 0 5 -9 9 -19 9 -12 0 -21 9 -25 25 -7 28 -18 31 -38 12z"/>
<path d="M4903 1464 c-8 -21 9 -48 32 -52 10 -2 15 0 11 6 -3 6 -2 13 4 17 5
3 10 15 10 26 0 24 -48 27 -57 3z"/>
</g>
</svg>
